<?xml version="1.0" encoding="UTF-8"?>
<svg xmlns="http://www.w3.org/2000/svg" width="121" height="91" viewBox="0 0 121 91" fill="none">
  <circle cx="40" cy="40" r="40" fill="#1C1C1C"></circle>
  <path d="M86.7338 82.6123H77.5018C71.3613 82.6123 65.2208 82.6241 59.0803 82.5959C58.3586 82.5959 58.013 82.8004 57.6839 83.4727C55.2272 88.5201 49.5757 91.2001 44.6294 89.6814C41.1289 88.6047 39.0225 86.141 37.9317 82.6123C34.5088 82.6123 31.0742 82.5959 27.6372 82.6123C25.9022 82.6241 24.581 81.9517 23.8452 80.3696C23.5919 79.8156 23.4786 79.2079 23.5154 78.5999C23.5521 77.9919 23.7377 77.4023 24.0558 76.8828C24.3739 76.3634 24.8148 75.9301 25.3397 75.6211C25.8646 75.312 26.4574 75.1368 27.0659 75.1106C28.3542 75.0448 29.6519 75.1106 30.9378 75.0895C33.1289 75.0448 34.7745 73.4109 34.7651 71.3281C34.7557 69.2452 33.1054 67.6184 30.9073 67.5948C28.5211 67.569 26.135 67.5948 23.7488 67.5831C21.4497 67.569 19.7735 65.9915 19.7523 63.864C19.7359 61.6753 21.4167 60.0814 23.7958 60.0814C33.6116 60.072 43.4281 60.072 53.2454 60.0814C56.1769 60.0814 58.1 57.4531 57.0068 54.9306C56.318 53.3391 55.0462 52.568 53.2948 52.5797C48.4073 52.5797 43.5174 52.6056 38.6276 52.5797C35.7548 52.5586 33.9258 49.7728 35.1224 47.262C35.8535 45.7293 37.1371 45.071 38.8251 45.0734C46.0203 45.0843 53.2164 45.0843 60.4132 45.0734C61.7438 45.0734 63.0745 45.0734 64.4098 45.0734C66.8758 45.0593 68.5849 43.4889 68.5591 41.2696C68.5332 39.1021 66.8406 37.567 64.4333 37.5646C52.309 37.5646 40.1847 37.5646 28.0603 37.5646C27.5144 37.5906 26.9672 37.5559 26.4288 37.4612C25.517 37.2558 24.7143 36.7183 24.1771 35.9534C23.64 35.1885 23.4068 34.251 23.5231 33.3236C23.7582 31.4429 25.3263 30.0465 27.341 30.0324C35.475 30.0167 43.6099 30.0167 51.7455 30.0324C52.3309 30.0324 52.921 30.0465 53.5063 30.0324C55.6809 29.9689 57.3195 28.3115 57.2889 26.2193C57.2765 25.2283 56.8711 24.2828 56.1618 23.5907C55.4525 22.8985 54.4973 22.5164 53.5063 22.5284C47.3282 22.5072 41.1548 22.5284 34.9696 22.5284C32.165 22.5284 30.3219 20.0129 31.2552 17.5069C31.8124 15.9952 32.9384 15.1912 34.5206 15.0267C34.8718 15.0008 35.2242 14.9937 35.5761 15.0055H85.5583C89.0941 15.0055 90.5234 16.6511 90.1002 20.1775C89.7217 23.3982 89.3668 26.6213 88.9812 30.0277H90.2648C96.3277 30.0277 102.391 30.0559 108.451 30.0112C110.548 29.9971 111.898 30.8717 112.732 32.7947C115.318 38.7401 117.994 44.6455 120.558 50.6003C120.923 51.4931 121.065 52.4613 120.972 53.4214C120.126 61.6259 119.178 69.8211 118.32 78.0234C117.958 81.4674 116.785 82.6029 113.287 82.6029C111.489 82.6029 109.688 82.6382 107.88 82.5865C107.154 82.5629 106.813 82.798 106.486 83.468C104.796 86.9074 102.045 89.0937 98.2884 89.8577C93.2669 90.8804 88.8002 88.2944 87.0394 83.4633C86.9571 83.2165 86.8607 82.9626 86.7338 82.6123ZM113.386 56.3106C113.386 55.0129 113.745 53.68 113.325 52.6714C111.296 47.8168 109.065 43.0445 106.869 38.2605C106.78 38.0886 106.653 37.9394 106.497 37.8241C106.341 37.7088 106.161 37.6305 105.971 37.5952C103.237 37.5458 100.503 37.52 97.7712 37.5952C95.7753 37.6493 94.3647 38.9517 94.1273 40.9052C93.6571 44.7019 93.2363 48.5033 92.8649 52.3094C92.6627 54.3782 94.226 56.2612 96.2925 56.2894C101.871 56.36 107.45 56.3106 113.386 56.3106ZM45.0808 79.7818C45.0808 81.5145 46.2304 82.7581 47.6503 82.5865C50.1704 82.2855 52.117 79.3704 51.4117 76.9443C50.965 75.421 49.7496 74.798 48.2404 75.3222C47.3082 75.6334 46.4993 76.2334 45.9312 77.0353C45.3631 77.8372 45.0652 78.7992 45.0808 79.7818ZM93.8922 79.803C93.911 81.5333 95.0677 82.7675 96.4782 82.5865C98.9607 82.2691 100.858 79.4668 100.24 77.0407C99.8306 75.4492 98.5799 74.7839 97.0259 75.3316C96.0972 75.6488 95.2933 76.2527 94.73 77.0564C94.1668 77.86 93.8734 78.8218 93.8922 79.803Z" fill="#FEDA45"></path>
  <path d="M21.6566 52.5587C20.9513 52.5587 20.2461 52.5964 19.5408 52.5587C18.5738 52.5019 17.666 52.0743 17.0065 51.3648C16.347 50.6554 15.9866 49.7188 16.0004 48.7503C16.0113 47.8009 16.3848 46.8915 17.0443 46.2085C17.7038 45.5254 18.5994 45.1202 19.5479 45.0759C20.9584 45.0147 22.3689 45.0077 23.7795 45.0759C24.727 45.1388 25.6153 45.5596 26.2641 46.253C26.913 46.9464 27.274 47.8606 27.274 48.8102C27.274 49.7599 26.913 50.6741 26.2641 51.3675C25.6153 52.0609 24.727 52.4817 23.7795 52.5446C23.0671 52.5987 22.3595 52.5587 21.6566 52.5587Z" fill="#FEDA45"></path>
</svg>
