<?xml version="1.0" encoding="UTF-8"?>
<svg xmlns="http://www.w3.org/2000/svg" width="80" height="82" viewBox="0 0 80 82" fill="none">
  <circle cx="40" cy="40" r="40" fill="#1C1C1C"></circle>
  <path d="M29.9606 81.2456C31.2453 80.668 31.7404 79.6616 31.729 78.2718C31.6983 72.7172 31.7161 67.1643 31.7161 61.6066V60.5225C32.3471 61.1455 32.8778 61.6195 33.3503 62.1405C35.0847 64.0821 37.2997 64.8911 39.84 64.8911C46.6889 64.904 53.5362 64.9186 60.3883 64.8911C61.3723 64.9358 62.3552 64.7804 63.2774 64.4343C64.1996 64.0882 65.042 63.5586 65.7536 62.8775C66.4651 62.1964 67.0311 61.378 67.4173 60.4718C67.8034 59.5657 68.0016 58.5906 68 57.6055C67.9983 56.6205 67.7969 55.6461 67.4077 54.7412C67.0185 53.8363 66.4498 53.0198 65.736 52.3411C65.0221 51.6624 64.178 51.1356 63.2546 50.7925C62.3312 50.4495 61.3479 50.2974 60.364 50.3454C54.5674 50.3196 48.7707 50.3196 42.974 50.3454C42.7114 50.3565 42.4496 50.3083 42.2082 50.2044C41.9667 50.1005 41.7518 49.9435 41.5793 49.7452C37.337 45.3766 33.1189 40.9741 28.8118 36.6654C24.7831 32.6334 19.9275 31.2824 14.504 33.1237C9.04983 34.9763 5.91742 38.9484 5.09872 44.6809C5.02389 45.4053 5.0001 46.1342 5.02753 46.8619C5.02753 57.2672 5.04371 67.674 5.00326 78.0889C5.00326 79.5791 5.44335 80.6405 6.82834 81.2424L29.9606 81.2456Z" fill="#FEDA45"></path>
  <path d="M54.6767 23.2311C54.6767 24.6015 54.6864 25.8651 54.6767 27.1304C54.6638 28.6901 53.6509 29.8065 52.2578 29.8195C50.8647 29.8324 49.8309 28.7322 49.8309 27.1644C49.8212 25.8781 49.8309 24.5918 49.8309 23.244C47.5447 23.244 45.341 23.1712 43.1438 23.2715C41.8769 23.3298 41.0986 24.4316 41.0954 25.8457C41.0889 30.6695 41.0889 35.4927 41.0954 40.3153C41.0954 41.1777 41.0824 42.0401 41.0954 42.9041C41.1261 44.3797 42.1196 45.378 43.6081 45.3812C49.3746 45.3931 55.1411 45.3931 60.9075 45.3812C62.333 45.3812 63.3976 44.3764 63.4041 42.9542C63.4311 37.1899 63.4311 31.424 63.4041 25.6564C63.4041 24.362 62.4576 23.2926 61.2311 23.2537C59.0809 23.1809 56.9306 23.2311 54.6767 23.2311Z" fill="#FEDA45"></path>
  <path d="M18.29 28.5802C10.9501 28.5802 4.99991 22.63 4.99991 15.2901C4.99991 7.95017 10.9501 2 18.29 2C25.6299 2 31.5801 7.95017 31.5801 15.2901C31.5801 22.63 25.6299 28.5802 18.29 28.5802Z" fill="#FEDA45"></path>
</svg>
