<?xml version="1.0" encoding="UTF-8"?>
<svg xmlns="http://www.w3.org/2000/svg" width="91" height="80" viewBox="0 0 91 80" fill="none">
  <circle cx="40" cy="40" r="40" fill="#1C1C1C"></circle>
  <path d="M17.0087 36.2247C17.6228 34.5731 18.8294 34.0182 20.5562 34.0355C26.4807 34.0933 32.4052 34.0514 38.3297 34.0717C38.7549 34.0753 39.1725 34.1845 39.5449 34.3896C46.9665 38.6562 54.3861 42.9286 61.8037 47.2067C62.2575 47.4683 62.4251 47.7443 62.4237 48.2732C62.4053 56.8709 62.401 65.4682 62.4106 74.065V74.8684C62.0797 74.6936 61.85 74.5794 61.6289 74.4523C54.2507 70.2011 46.873 65.9504 39.4958 61.7001C39.1028 61.4823 38.6619 61.3656 38.2126 61.3605C32.3618 61.3389 26.5081 61.31 20.6602 61.3678C18.9262 61.3851 17.669 60.8664 17.0087 59.2003V57.8998C17.6257 56.2539 18.8352 55.6094 20.5605 55.7323C21.5431 55.7973 22.5329 55.7438 23.5199 55.7438C28.5533 55.7438 33.5857 55.7438 38.6172 55.7438C39.9553 55.7438 40.8396 55.0921 41.1373 53.9202C41.6358 51.9579 40.5246 50.5201 38.4959 50.5172C34.9079 50.5172 31.32 50.5404 27.7335 50.4941C27.0643 50.4799 26.4086 50.3028 25.8232 49.9783C24.764 49.3757 24.3551 48.0607 24.6975 46.886C24.8671 46.3153 25.216 45.8144 25.6926 45.4575C26.1691 45.1007 26.748 44.9069 27.3433 44.9049C30.3041 44.8861 33.2678 44.9049 36.2272 44.8933C37.467 44.8933 38.3571 44.2315 38.6418 43.1145C39.1042 41.2923 38.0739 39.619 36.0408 39.6465C30.9125 39.7159 25.7813 39.6306 20.6559 39.6898C18.9219 39.7101 17.6661 39.1855 17 37.5223L17.0087 36.2247Z" fill="#FEDA45"></path>
  <path d="M90.9927 60.7897C90.4653 61.2521 89.9957 61.8171 89.4032 62.1639C82.3198 66.286 75.2244 70.3903 68.1169 74.4768C67.9103 74.5953 67.6978 74.7022 67.3944 74.8684C67.3713 74.5996 67.3395 74.4031 67.3395 74.2051C67.3395 65.5409 67.3337 56.8767 67.3221 48.2124C67.3221 47.6763 67.5577 47.4538 67.9579 47.2226C75.3939 42.9386 82.827 38.6489 90.2572 34.3534C90.5072 34.2089 90.7529 34.0644 91 33.9098L90.9927 60.7897Z" fill="#FEDA45"></path>
  <path d="M41.2485 29.6544C45.0128 27.4869 48.7004 25.3541 52.3751 23.2155C52.8086 22.9655 53.4834 22.8239 53.2811 22.1086C53.0788 21.3933 52.4141 21.6592 51.9242 21.639C51.1309 21.6072 50.3347 21.639 49.5414 21.6289C47.8768 21.6072 46.6442 20.4353 46.6254 18.8689C46.6138 17.2621 47.8406 16.0367 49.54 16.0266C52.6467 16.0078 55.7535 16.0266 58.8588 16.0266C60.3038 16.0266 61.7488 16.0844 63.1938 16.0078C64.3729 15.9457 65.3613 16.2564 66.3829 16.8503C73.5284 21.022 80.7029 25.1431 87.8672 29.2773C88.0536 29.3842 88.2371 29.4984 88.4828 29.6458C88.3358 29.7657 88.1824 29.8777 88.0233 29.981C80.4823 34.3362 72.9423 38.69 65.4032 43.0424C65.0694 43.2346 64.8252 43.314 64.4307 43.0886C56.857 38.6939 49.2775 34.3107 41.6922 29.9391C41.5737 29.8668 41.4537 29.7888 41.2485 29.6544Z" fill="#FEDA45"></path>
  <path d="M31.3547 21.6302C28.5167 21.6302 25.6773 21.6446 22.8393 21.6229C21.4651 21.6128 20.4045 20.7097 20.1097 19.3846C19.9803 18.7916 20.0532 18.1724 20.3166 17.6255C20.5801 17.0787 21.019 16.6359 21.5634 16.3675C22.0196 16.1554 22.5154 16.0421 23.0185 16.0351C28.576 16.0129 34.1349 16.0096 39.6953 16.025C41.4047 16.025 42.6503 17.22 42.6618 18.811C42.6734 20.4337 41.4163 21.6229 39.6591 21.6287C36.8891 21.6302 34.1219 21.6302 31.3547 21.6302Z" fill="#FEDA45"></path>
</svg>
