<?xml version="1.0" encoding="UTF-8"?>
<svg xmlns="http://www.w3.org/2000/svg" width="91" height="80" viewBox="0 0 91 80" fill="none">
  <circle cx="40" cy="40" r="40" fill="#1C1C1C"></circle>
  <path d="M8 40.0457C8.58014 38.6089 9.63601 38.0732 11.1753 38.0925C15.5748 38.1486 19.9742 38.1119 24.3736 38.1119C25.4024 38.1119 26.2127 38.5219 26.7097 39.4346C26.9361 39.8225 27.0488 40.2663 27.0352 40.7153C27.0215 41.1642 26.8819 41.6003 26.6323 41.9737C26.4308 42.3291 26.1379 42.6242 25.7839 42.8282C25.4299 43.0322 25.0278 43.1378 24.6192 43.134C19.8968 43.1443 15.1738 43.1443 10.4501 43.134C9.1951 43.134 8.55114 42.2986 8 41.3356V40.0457Z" fill="#FEDA45"></path>
  <path d="M53.9069 33.8864C52.8162 30.5216 51.7604 27.2709 50.7064 24.024C49.8014 21.2277 48.8848 18.4353 47.9991 15.6332C47.2101 13.1018 47.6684 12.3921 50.2694 12.0808C50.778 12.0189 51.2943 12.0343 51.8048 12.0092C52.3584 11.9678 52.9135 12.0666 53.4188 12.2964C53.9241 12.5262 54.3633 12.8797 54.6959 13.3242C57.2098 16.4608 59.7702 19.5685 62.3054 22.6935C64.9432 25.9443 67.6138 29.1679 70.1819 32.4728C71.0482 33.5848 72.0055 33.9967 73.3939 34.0199C76.6814 34.0953 79.9689 34.2887 83.2564 34.5401C85.9947 34.7489 88.2379 36.0368 90.0557 38.0712C91.3359 39.5042 91.3069 41.1286 90.0151 42.577C87.9594 44.8802 85.3526 46.0289 82.3108 46.1952C78.9949 46.377 75.6778 46.5336 72.3593 46.6651C72.0526 46.6636 71.7498 46.7342 71.4753 46.8713C71.2009 47.0083 70.9625 47.208 70.7794 47.4541C65.7412 53.6952 60.6952 59.9278 55.6415 66.1521C55.6227 66.171 55.6058 66.1917 55.5912 66.214C54.1757 68.5655 52.0601 68.9678 49.5655 68.4321C47.8579 68.0647 47.3126 67.353 47.8115 65.6919C48.6701 62.826 49.6119 59.9852 50.5188 57.1367C51.5502 53.9304 52.5906 50.7248 53.64 47.5198C53.7135 47.2936 53.7735 47.0615 53.8605 46.7598C53.726 46.7369 53.5905 46.7207 53.4544 46.7115C50.807 46.7115 48.1596 46.7289 45.5141 46.7018C44.4989 46.6902 43.7389 47.0054 43.0775 47.8234C41.4667 49.8191 39.7784 51.753 38.1057 53.6984C37.6667 54.2108 37.191 54.6904 36.7095 55.1623C36.0481 55.8101 35.2475 56.0209 34.329 55.9126C32.3449 55.6786 31.5945 54.6943 32.0877 52.7643C33.072 48.8967 34.124 45.0484 35.1044 41.1789C35.242 40.6069 35.242 40.0104 35.1044 39.4384C34.1859 35.8048 33.2112 32.1847 32.2559 28.5607C32.2095 28.3673 32.1612 28.1952 32.1205 28.0115C31.7783 26.4645 31.9736 25.6445 32.7896 25.1688C34.1182 24.3953 35.8934 24.4939 36.8332 25.5401C38.7671 27.6866 40.6873 29.8506 42.4877 32.1151C43.5146 33.403 44.6052 34.0373 46.3167 33.929C48.8036 33.7704 51.2943 33.8864 53.9069 33.8864Z" fill="#FEDA45"></path>
  <path d="M21.3434 33.3702C20.3184 33.3702 19.2935 33.3895 18.2686 33.3702C16.7022 33.3296 15.5999 32.2505 15.6193 30.8002C15.6386 29.3498 16.7119 28.3519 18.2628 28.3403C20.3152 28.3249 22.3657 28.3249 24.4143 28.3403C25.9226 28.3539 26.9746 29.3537 27.0133 30.7557C27.052 32.1964 26.0116 33.3006 24.4993 33.3586C23.4493 33.3992 22.3954 33.3586 21.3434 33.3586V33.3702Z" fill="#FEDA45"></path>
  <path d="M21.3182 52.9732C20.3203 52.9732 19.3205 52.9906 18.3227 52.9732C16.6925 52.9384 15.5883 51.8671 15.6154 50.3819C15.6444 48.9296 16.7331 47.9531 18.3652 47.9434C20.3339 47.9305 22.3031 47.9305 24.273 47.9434C25.9052 47.9531 26.9804 48.9277 27.0094 50.3858C27.0365 51.8826 25.9477 52.9384 24.302 52.9732C23.3139 52.9906 22.3102 52.9732 21.3182 52.9732Z" fill="#FEDA45"></path>
</svg>
